#!OML:ASF X:\für Bonn\!DataBase\2005_08_10_Bjorn_Final\c3d\bjorn.ASF
:FULLY-SPECIFIED
:DEGREES
219
root 5.53055 16.6342 0.29156 468.408 83.7129 -615.9
lowerback 13.0927 2.36404 0.970514
upperback 10.3559 3.86303 -0.546576
thorax 3.6936 2.28545 -1.4626
lowerneck -9.95546 -4.82513 1.05721
upperneck 3.49805 -6.16062 -5.74905
head 2.6492 -3.23812 -2.38576
rclavicle -3.97569e-014 -4.77083e-015
rhumerus -10.3433 -13.2312 -80.9463
rradius 20.7872
rwrist 9.57415
rhand -12.7948 10.2546
rfingers 7.12502
rthumb 13.291 -19.3016
lclavicle -3.97569e-014 -4.77083e-015
lhumerus -24.3252 -32.1816 75.0331
lradius 51.1876
lwrist -8.04169
lhand -26.6825 -10.9688
lfingers 7.12502
lthumb -0.113438 19.0109
rfemur -33.0313 2.79393 4.55248
rtibia 77.8726
rfoot -29.5071 19.5505
rtoes -26.6213
lfemur -40.9596 3.7462 -27.386
ltibia 75.8717
lfoot -25.8014 -2.33163
ltoes -16.6056
220
root 5.57621 16.7942 0.289171 467.963 83.9138 -616.474
lowerback 12.5483 2.38709 0.984543
upperback 10.1122 3.86038 -0.668763
thorax 3.73131 2.27304 -1.57606
lowerneck -9.62054 -4.77717 1.10226
upperneck 3.23711 -6.12435 -5.63716
head 2.50129 -3.20946 -2.3322
rclavicle -6.08281e-014 3.33958e-014
rhumerus -11.0819 -12.9429 -81.174
rradius 20.9556
rwrist 9.14006
rhand -13.0065 10.2827
rfingers 7.12502
rthumb 13.0869 -19.2867
lclavicle -6.08281e-014 3.33958e-014
lhumerus -25.1387 -31.7981 75.7604
lradius 50.572
lwrist -8.24369
lhand -26.3543 -10.9166
lfingers 7.12502
lthumb 0.203558 19.063
rfemur -31.7173 3.00681 4.9781
rtibia 75.5329
rfoot -29.1105 19.3549
rtoes -24.2043
lfemur -39.7203 3.77198 -27.1621
ltibia 73.7191
lfoot -25.5734 -2.35558
ltoes -15.7455
221
root 5.62241 16.951 0.285464 467.747 84.2035 -616.775
lowerback 12.0451 2.40402 1.09516
upperback 9.86736 3.85844 -0.746784
thorax 3.75075 2.26503 -1.6995
lowerneck -9.25306 -4.73882 1.11321
upperneck 2.97854 -6.09459 -5.5389
head 2.34944 -3.18462 -2.27688
rclavicle -1.94809e-014 3.49861e-014
rhumerus -11.8671 -12.6952 -81.3528
rradius 21.1575
rwrist 8.82691
rhand -13.1999 10.3754
rfingers 7.12502
rthumb 12.9005 -19.2058
lclavicle -1.94809e-014 3.49861e-014
lhumerus -26.0034 -31.452 76.5476
lradius 49.9931
lwrist -8.3747
lhand -26.0773 -10.7447
lfingers 7.12502
lthumb 0.471074 19.2345
rfemur -30.3499 3.18592 5.51398
rtibia 73.1777
rfoot -28.7334 19.083
rtoes -21.7625
lfemur -38.4515 3.80875 -26.8342
ltibia 71.5783
lfoot -25.3166 -2.43601
ltoes -14.7036
222
root 5.66906 17.1049 0.282151 467.167 84.4842 -617.443
lowerback 11.53 2.43161 1.19718
upperback 9.62791 3.87119 -0.856889
thorax 3.78661 2.2656 -1.85151
lowerneck -8.76692 -4.69395 1.21558
upperneck 2.56484 -6.07303 -5.43958
head 2.1224 -3.16006 -2.22872
rclavicle -4.96962e-014 -4.77083e-015
rhumerus -12.6466 -12.3736 -81.5813
rradius 21.3589
rwrist 8.41901
rhand -13.4803 10.5383
rfingers 7.12502
rthumb 12.6302 -19.0599
lclavicle -4.96962e-014 -4.77083e-015
lhumerus -26.8181 -31.0493 77.2765
lradius 49.371
lwrist -8.49331
lhand -25.7246 -10.5266
lfingers 7.12502
lthumb 0.81169 19.4516
rfemur -29.0089 3.36281 6.02787
rtibia 70.8356
rfoot -28.484 18.6417
rtoes -19.8351
lfemur -37.1794 3.89312 -26.5359
ltibia 69.4274
lfoot -25.0633 -2.46016
ltoes -13.909
223
root 5.715 17.2548 0.27864 466.582 84.7052 -618.116
lowerback 11.0119 2.46484 1.25126
upperback 9.40011 3.88981 -0.979751
thorax 3.83629 2.26792 -1.98953
lowerneck -8.3106 -4.66118 1.29601
upperneck 2.15056 -6.06482 -5.29811
head 1.904 -3.14211 -2.16567
rclavicle 2.06736e-014 1.19271e-014
rhumerus -13.4263 -12.1586 -81.795
rradius 21.593
rwrist 8.15457
rhand -13.7056 10.7417
rfingers 7.12502
rthumb 12.413 -18.8697
lclavicle 2.06736e-014 1.19271e-014
lhumerus -27.5875 -30.6889 77.9751
lradius 48.7643
lwrist -8.4823
lhand -25.3439 -10.245
lfingers 7.12502
lthumb 1.17941 19.7315
rfemur -27.6938 3.46423 6.4673
rtibia 68.5194
rfoot -28.3322 18.0785
rtoes -18.681
lfemur -35.9149 3.93772 -26.3023
ltibia 67.2774
lfoot -24.782 -2.44907
ltoes -13.0308
224
root 5.76107 17.4 0.27448 465.733 84.851 -619.049
lowerback 10.4966 2.50342 1.23928
upperback 9.16767 3.9126 -1.13786
thorax 3.87945 2.27026 -2.12762
lowerneck -7.77569 -4.61373 1.41138
upperneck 1.66316 -6.04285 -5.12061
head 1.65027 -3.1154 -2.09265
rclavicle -1.59028e-015 1.82882e-014
rhumerus -14.2443 -11.9576 -82.0237
rradius 21.8441
rwrist 7.90448
rhand -13.8638 10.9088
rfingers 7.12502
rthumb 12.2604 -18.7118
lclavicle -1.59028e-015 1.82882e-014
lhumerus -28.3593 -30.3005 78.6386
lradius 48.151
lwrist -8.45746
lhand -24.8723 -9.89695
lfingers 7.12502
lthumb 1.6349 20.0765
rfemur -26.3937 3.53965 6.80489
rtibia 66.2312
rfoot -28.3317 17.3508
rtoes -18.5899
lfemur -34.6447 3.96793 -26.1601
ltibia 65.1142
lfoot -24.5101 -2.38354
ltoes -12.4976
